<?xml version="1.0" standalone="no"?>
<!DOCTYPE svg PUBLIC "-//W3C//DTD SVG 20010904//EN"
 "http://www.w3.org/TR/2001/REC-SVG-20010904/DTD/svg10.dtd">
<svg version="1.0" xmlns="http://www.w3.org/2000/svg"
 width="700.000000pt" height="700.000000pt" viewBox="0 0 700.000000 700.000000"
 preserveAspectRatio="xMidYMid meet">
<metadata>
Created by potrace 1.11, written by Peter Selinger 2001-2013
</metadata>
<g transform="translate(0.000000,700.000000) scale(0.100000,-0.100000)"
fill="#000000" stroke="none">
<path d="M4872 6987 c-20 -11 -72 -77 -72 -91 0 -6 -74 -162 -184 -387 -31
-64 -56 -120 -56 -124 0 -10 1812 -1825 1822 -1825 9 0 111 48 380 178 177 86
209 105 223 132 39 76 94 15 -993 1104 -583 583 -1010 1004 -1029 1012 -39 17
-61 17 -91 1z"/>
<path d="M4189 6076 c-4 -4 -102 -13 -219 -21 -36 -2 -85 -7 -110 -9 -25 -3
-79 -8 -120 -11 -41 -3 -95 -7 -120 -10 -25 -2 -79 -7 -120 -10 -41 -3 -95 -8
-120 -10 -25 -2 -81 -7 -125 -10 -44 -3 -96 -8 -115 -10 -19 -3 -73 -7 -120
-10 -47 -3 -103 -7 -125 -10 -22 -2 -76 -6 -120 -10 -44 -3 -96 -8 -115 -10
-19 -2 -75 -7 -125 -10 -236 -17 -309 -44 -355 -135 -16 -32 -45 -135 -57
-200 -15 -87 -116 -466 -163 -615 -72 -224 -174 -524 -196 -572 -8 -17 -14
-36 -14 -42 0 -6 -4 -19 -9 -29 -5 -9 -26 -60 -47 -112 -49 -127 -144 -360
-155 -380 -4 -8 -15 -31 -23 -50 -29 -70 -94 -217 -137 -310 -51 -112 -342
-694 -397 -795 -211 -388 -383 -683 -595 -1020 -66 -104 -180 -278 -253 -386
l-132 -197 195 -195 196 -195 929 929 c722 722 928 934 923 947 -41 100 -48
133 -51 242 -5 163 26 273 112 396 94 134 246 235 399 267 67 14 221 16 274 3
207 -49 382 -190 463 -372 54 -124 70 -297 39 -429 -45 -189 -208 -376 -392
-449 -93 -36 -127 -41 -264 -40 -117 1 -143 6 -247 49 -14 5 -223 -199 -947
-923 l-929 -929 196 -196 c172 -173 198 -195 213 -184 57 40 549 367 553 367
2 0 31 17 63 39 310 205 970 573 1458 811 424 208 662 314 989 441 99 39 195
77 211 84 31 14 270 97 475 165 207 69 487 145 790 216 63 15 131 35 151 45
74 37 113 113 124 244 3 33 8 85 10 115 3 30 7 82 10 115 3 33 7 83 10 110 2
28 7 86 10 130 3 44 8 100 10 125 3 25 7 74 10 110 3 36 7 88 10 115 2 28 7
88 10 135 3 47 8 99 10 115 2 17 6 71 10 120 3 50 8 104 10 120 2 17 7 73 11
125 3 52 8 103 9 112 2 9 7 67 10 127 l7 110 -923 923 c-508 508 -931 929
-940 935 -9 7 -18 11 -20 9z"/>
</g>
</svg>
